<?xml version="1.0" encoding="iso-8859-1"?>
<!-- Generator: Adobe Illustrator 19.0.0, SVG Export Plug-In . SVG Version: 6.00 Build 0)  -->
<svg version="1.1" id="Layer_1" xmlns="http://www.w3.org/2000/svg" xmlns:xlink="http://www.w3.org/1999/xlink" x="0px" y="0px"
	 viewBox="0 0 307.3 307.3" style="enable-background:new 0 0 307.3 307.3;" xml:space="preserve">
<g>
	<g>
		<g>
			<path d="M294.141,257.872l-56.043-99.183c11.646-17.233,17.366-37.071,17.366-56.875C255.465,45.673,209.791,0,153.651,0
				S51.838,45.673,51.838,101.813c0,19.706,5.664,39.556,17.367,56.875l-56.047,99.191c-6.333,11.237,4.095,24.545,16.511,21.099
				l24.524-6.813l6.813,24.515c3.452,12.424,20.246,14.484,26.596,3.251l54.768-96.932c7.504,0.831,15.051,0.832,22.564,0
				l54.769,96.934c6.373,11.273,23.148,9.153,26.595-3.252l6.813-24.515l24.523,6.813
				C290.058,282.434,300.473,269.107,294.141,257.872z M75.134,291.501l-8.498-30.579c-1.107-3.983-5.232-6.327-9.233-5.218
				l-30.59,8.497l52.464-92.85c4.753,5.087,10.105,9.717,15.582,13.589l-20.188,35.731c-2.038,3.606-0.766,8.182,2.84,10.219
				c3.611,2.04,8.184,0.762,10.219-2.84l19.981-35.365c5.941,3.016,12.444,5.559,19.093,7.366L75.134,291.501z M153.723,188.626
				c-0.024,0-0.048,0.001-0.072,0.001c-0.009,0-0.018,0-0.027,0c-47.763-0.02-86.784-38.863-86.784-86.816
				c0-47.867,38.943-86.809,86.81-86.809s86.81,38.942,86.81,86.809C240.461,149.744,201.468,188.592,153.723,188.626z
				 M249.899,255.705c-3.99-1.107-8.125,1.228-9.233,5.218l-8.498,30.579l-51.671-91.45c6.557-1.781,13.181-4.362,19.094-7.365
				l19.981,35.364c2.038,3.607,6.613,4.878,10.219,2.84c3.607-2.038,4.878-6.613,2.84-10.219l-20.189-35.732
				c5.29-3.74,10.763-8.43,15.582-13.589l52.464,92.851L249.899,255.705z"/>
			<path d="M153.652,30c-39.598,0-71.814,32.215-71.814,71.813c0,39.598,32.215,71.813,71.814,71.813s71.813-32.214,71.813-71.813
				C225.465,62.215,193.25,30,153.652,30z M153.651,158.626c-31.327,0-56.813-25.485-56.813-56.813
				C96.838,70.487,122.324,45,153.651,45s56.813,25.486,56.813,56.813C210.464,133.14,184.978,158.626,153.651,158.626z"/>
			<path d="M153.652,60c-23.056,0-41.814,18.757-41.814,41.813c0,23.056,18.757,41.813,41.814,41.813
				c23.057,0,41.813-18.756,41.813-41.813C195.465,78.757,176.708,60,153.652,60z M153.652,128.626
				c-14.786,0.001-26.814-12.027-26.814-26.813c0-14.785,12.028-26.813,26.814-26.813c14.785,0,26.813,12.028,26.813,26.813
				C180.465,116.598,168.437,128.626,153.652,128.626z"/>
		</g>
	</g>
</g>
<g>
</g>
<g>
</g>
<g>
</g>
<g>
</g>
<g>
</g>
<g>
</g>
<g>
</g>
<g>
</g>
<g>
</g>
<g>
</g>
<g>
</g>
<g>
</g>
<g>
</g>
<g>
</g>
<g>
</g>
</svg>
